<svg version="1.0" preserveAspectRatio="xMidYMid meet" height="768" viewBox="0 0 1024.5 576" zoomAndPan="magnify" width="1366" xmlns:xlink="http://www.w3.org/1999/xlink" xmlns="http://www.w3.org/2000/svg"><defs><g></g><clipPath id="bcf27d0c4c"><path clip-rule="nonzero" d="M 0 0.140625 L 1024 0.140625 L 1024 575.859375 L 0 575.859375 Z M 0 0.140625"></path></clipPath><clipPath id="3320a96bd5"><path clip-rule="nonzero" d="M 242.730469 192.671875 L 245 192.671875 L 245 211 L 242.730469 211 Z M 242.730469 192.671875"></path></clipPath><clipPath id="319d272411"><path clip-rule="nonzero" d="M 242.730469 192.671875 L 247 192.671875 L 247 212 L 242.730469 212 Z M 242.730469 192.671875"></path></clipPath><clipPath id="8efdb53922"><path clip-rule="nonzero" d="M 243 194 L 289.515625 194 L 289.515625 233.6875 L 243 233.6875 Z M 243 194"></path></clipPath><clipPath id="d0400339f3"><path clip-rule="nonzero" d="M 705.15625 192.671875 L 708 192.671875 L 708 211 L 705.15625 211 Z M 705.15625 192.671875"></path></clipPath><clipPath id="3e97889fd6"><path clip-rule="nonzero" d="M 705.15625 192.671875 L 709 192.671875 L 709 212 L 705.15625 212 Z M 705.15625 192.671875"></path></clipPath><clipPath id="3e3be57133"><path clip-rule="nonzero" d="M 707 195 L 751.9375 195 L 751.9375 233 L 707 233 Z M 707 195"></path></clipPath><clipPath id="d5992cddd9"><path clip-rule="nonzero" d="M 706 194 L 751.9375 194 L 751.9375 233.6875 L 706 233.6875 Z M 706 194"></path></clipPath></defs><g clip-path="url(#bcf27d0c4c)"><path fill-rule="nonzero" fill-opacity="1" d="M 0 0.140625 L 1024 0.140625 L 1024 575.859375 L 0 575.859375 Z M 0 0.140625" fill="#ffffff"></path><path fill-rule="nonzero" fill-opacity="1" d="M 0 0.140625 L 1024 0.140625 L 1024 575.859375 L 0 575.859375 Z M 0 0.140625" fill="#efcac8"></path></g><g fill-opacity="1" fill="#f6f4e9"><g transform="translate(171.392773, 336.701063)"><g><path d="M 5 -96.40625 C 5.800781 -96.40625 7.265625 -96.601562 9.390625 -97 C 11.523438 -97.40625 13.691406 -98.507812 15.890625 -100.3125 C 18.097656 -102.113281 20.035156 -104.847656 21.703125 -108.515625 C 23.367188 -112.179688 24.203125 -117.28125 24.203125 -123.8125 L 38.203125 -123.8125 C 38.203125 -115.8125 36.601562 -109.644531 33.40625 -105.3125 C 30.207031 -100.976562 25.40625 -98.007812 19 -96.40625 L 49 -96.40625 L 49 -95 L 31.609375 -95 L 31.609375 -37.203125 C 31.609375 -34.804688 31.738281 -31.90625 32 -28.5 C 32.269531 -25.101562 32.835938 -21.769531 33.703125 -18.5 C 34.566406 -15.226562 35.832031 -12.257812 37.5 -9.59375 C 39.164062 -6.925781 41.398438 -5.128906 44.203125 -4.203125 C 47.003906 -3.265625 49.738281 -3.257812 52.40625 -4.1875 C 55.070312 -5.125 57.503906 -6.59375 59.703125 -8.59375 C 61.898438 -10.59375 63.863281 -12.859375 65.59375 -15.390625 C 67.332031 -17.929688 68.738281 -20.335938 69.8125 -22.609375 C 70.601562 -24.472656 71.363281 -26.4375 72.09375 -28.5 C 72.832031 -30.570312 73.535156 -32.738281 74.203125 -35 L 76 -35 C 75.332031 -32.601562 74.632812 -30.300781 73.90625 -28.09375 C 73.175781 -25.894531 72.34375 -23.863281 71.40625 -22 C 70.207031 -19.195312 68.707031 -16.460938 66.90625 -13.796875 C 65.101562 -11.128906 63.066406 -8.695312 60.796875 -6.5 C 58.535156 -4.300781 56.003906 -2.535156 53.203125 -1.203125 C 50.398438 0.128906 47.332031 0.796875 44 0.796875 C 38.53125 0.796875 34.097656 -0.332031 30.703125 -2.59375 C 27.304688 -4.863281 24.640625 -7.796875 22.703125 -11.390625 C 20.765625 -14.992188 19.425781 -19.0625 18.6875 -23.59375 C 17.957031 -28.132812 17.59375 -32.671875 17.59375 -37.203125 L 17.59375 -82.8125 C 17.59375 -86.144531 16.457031 -89.007812 14.1875 -91.40625 C 11.925781 -93.800781 8.863281 -95 5 -95 Z M 5 -96.40625"></path></g></g></g><g fill-opacity="1" fill="#f6f4e9"><g transform="translate(248.9901, 336.701063)"><g><path d="M 5 -89.203125 L 23.796875 -96.40625 L 23.796875 -17.203125 C 23.796875 -13.867188 23.960938 -11.203125 24.296875 -9.203125 C 24.628906 -7.203125 25.0625 -5.632812 25.59375 -4.5 C 26.132812 -3.363281 26.671875 -2.628906 27.203125 -2.296875 C 27.734375 -1.960938 28.132812 -1.796875 28.40625 -1.796875 L 28.40625 0 L 5.203125 0 L 5.203125 -1.796875 C 5.597656 -1.796875 6.0625 -1.960938 6.59375 -2.296875 C 7.132812 -2.628906 7.632812 -3.363281 8.09375 -4.5 C 8.5625 -5.632812 8.992188 -7.203125 9.390625 -9.203125 C 9.796875 -11.203125 10 -13.867188 10 -17.203125 L 10 -79 C 9.46875 -82.601562 8.734375 -84.9375 7.796875 -86 C 6.867188 -87.070312 6.132812 -87.609375 5.59375 -87.609375 Z M 15.40625 -112.609375 C 12.738281 -112.609375 10.503906 -113.507812 8.703125 -115.3125 C 6.898438 -117.113281 6 -119.347656 6 -122.015625 C 6 -124.679688 6.898438 -126.910156 8.703125 -128.703125 C 10.503906 -130.503906 12.738281 -131.40625 15.40625 -131.40625 C 18.070312 -131.40625 20.300781 -130.503906 22.09375 -128.703125 C 23.894531 -126.910156 24.796875 -124.679688 24.796875 -122.015625 C 24.796875 -119.347656 23.894531 -117.113281 22.09375 -115.3125 C 20.300781 -113.507812 18.070312 -112.609375 15.40625 -112.609375 Z M 15.40625 -112.609375"></path></g></g></g><g fill-opacity="1" fill="#f6f4e9"><g transform="translate(278.988771, 336.701063)"><g><path d="M 147.015625 -59.203125 L 147.015625 -17.203125 C 147.015625 -13.867188 147.179688 -11.203125 147.515625 -9.203125 C 147.847656 -7.203125 148.28125 -5.632812 148.8125 -4.5 C 149.34375 -3.363281 149.875 -2.628906 150.40625 -2.296875 C 150.945312 -1.960938 151.347656 -1.796875 151.609375 -1.796875 L 151.609375 0 L 128.40625 0 L 128.40625 -1.796875 C 128.675781 -1.796875 129.078125 -1.960938 129.609375 -2.296875 C 130.140625 -2.628906 130.640625 -3.363281 131.109375 -4.5 C 131.578125 -5.632812 132.007812 -7.203125 132.40625 -9.203125 C 132.8125 -11.203125 133.015625 -13.867188 133.015625 -17.203125 L 133.015625 -59.203125 C 133.015625 -61.609375 132.878906 -64.507812 132.609375 -67.90625 C 132.335938 -71.300781 131.769531 -74.632812 130.90625 -77.90625 C 130.039062 -81.175781 128.773438 -84.144531 127.109375 -86.8125 C 125.441406 -89.476562 123.207031 -91.273438 120.40625 -92.203125 C 117.601562 -93.140625 114.867188 -93.109375 112.203125 -92.109375 C 109.535156 -91.109375 107.101562 -89.609375 104.90625 -87.609375 C 102.707031 -85.609375 100.738281 -83.335938 99 -80.796875 C 97.269531 -78.265625 95.875 -75.867188 94.8125 -73.609375 C 91.875 -67.203125 89.535156 -59.363281 87.796875 -50.09375 C 86.066406 -40.832031 85.203125 -29.867188 85.203125 -17.203125 C 85.203125 -13.867188 85.367188 -11.203125 85.703125 -9.203125 C 86.035156 -7.203125 86.46875 -5.632812 87 -4.5 C 87.539062 -3.363281 88.078125 -2.628906 88.609375 -2.296875 C 89.140625 -1.960938 89.539062 -1.796875 89.8125 -1.796875 L 89.8125 0 L 66.609375 0 L 66.609375 -1.796875 C 66.867188 -1.796875 67.265625 -1.960938 67.796875 -2.296875 C 68.335938 -2.628906 68.835938 -3.363281 69.296875 -4.5 C 69.765625 -5.632812 70.195312 -7.203125 70.59375 -9.203125 C 71 -11.203125 71.203125 -13.867188 71.203125 -17.203125 L 71.203125 -59.203125 C 71.203125 -61.609375 71.066406 -64.507812 70.796875 -67.90625 C 70.535156 -71.300781 69.972656 -74.632812 69.109375 -77.90625 C 68.242188 -81.175781 66.976562 -84.144531 65.3125 -86.8125 C 63.644531 -89.476562 61.410156 -91.273438 58.609375 -92.203125 C 55.804688 -93.140625 53.070312 -93.109375 50.40625 -92.109375 C 47.738281 -91.109375 45.300781 -89.609375 43.09375 -87.609375 C 40.894531 -85.609375 38.929688 -83.335938 37.203125 -80.796875 C 35.472656 -78.265625 34.070312 -75.867188 33 -73.609375 C 30.070312 -67.203125 27.738281 -59.363281 26 -50.09375 C 24.269531 -40.832031 23.40625 -29.867188 23.40625 -17.203125 C 23.40625 -13.867188 23.570312 -11.203125 23.90625 -9.203125 C 24.238281 -7.203125 24.671875 -5.632812 25.203125 -4.5 C 25.734375 -3.363281 26.265625 -2.628906 26.796875 -2.296875 C 27.335938 -1.960938 27.738281 -1.796875 28 -1.796875 L 28 0 L 5 0 L 5 -1.796875 C 5.269531 -1.796875 5.671875 -1.960938 6.203125 -2.296875 C 6.734375 -2.628906 7.234375 -3.363281 7.703125 -4.5 C 8.171875 -5.632812 8.601562 -7.203125 9 -9.203125 C 9.394531 -11.203125 9.59375 -13.867188 9.59375 -17.203125 L 9.59375 -79.203125 C 9.59375 -82.398438 9.394531 -85.03125 9 -87.09375 C 8.601562 -89.164062 8.171875 -90.734375 7.703125 -91.796875 C 7.234375 -92.867188 6.734375 -93.601562 6.203125 -94 C 5.671875 -94.40625 5.269531 -94.609375 5 -94.609375 L 5 -96.40625 L 23.40625 -96.40625 L 23.40625 -44.609375 C 24.332031 -50.734375 25.460938 -56.265625 26.796875 -61.203125 C 28.128906 -66.140625 29.664062 -70.539062 31.40625 -74.40625 C 32.738281 -77.207031 34.269531 -79.941406 36 -82.609375 C 37.738281 -85.273438 39.773438 -87.707031 42.109375 -89.90625 C 44.441406 -92.101562 46.972656 -93.867188 49.703125 -95.203125 C 52.429688 -96.535156 55.460938 -97.203125 58.796875 -97.203125 C 64.265625 -97.203125 68.734375 -96.066406 72.203125 -93.796875 C 75.671875 -91.535156 78.367188 -88.601562 80.296875 -85 C 82.234375 -81.40625 83.535156 -77.335938 84.203125 -72.796875 C 84.867188 -68.265625 85.203125 -63.734375 85.203125 -59.203125 L 85.203125 -44.609375 C 86.003906 -50.734375 87.070312 -56.265625 88.40625 -61.203125 C 89.738281 -66.140625 91.335938 -70.539062 93.203125 -74.40625 C 94.398438 -77.207031 95.898438 -79.941406 97.703125 -82.609375 C 99.503906 -85.273438 101.535156 -87.707031 103.796875 -89.90625 C 106.066406 -92.101562 108.601562 -93.867188 111.40625 -95.203125 C 114.207031 -96.535156 117.273438 -97.203125 120.609375 -97.203125 C 126.078125 -97.203125 130.507812 -96.066406 133.90625 -93.796875 C 137.3125 -91.535156 139.976562 -88.601562 141.90625 -85 C 143.84375 -81.40625 145.175781 -77.335938 145.90625 -72.796875 C 146.644531 -68.265625 147.015625 -63.734375 147.015625 -59.203125 Z M 147.015625 -59.203125"></path></g></g></g><g fill-opacity="1" fill="#f6f4e9"><g transform="translate(432.183957, 336.701063)"><g><path d="M 6.796875 -36.609375 C 5.066406 -43.140625 4.664062 -49.601562 5.59375 -56 C 6.53125 -62.40625 8.566406 -68.304688 11.703125 -73.703125 C 14.835938 -79.109375 18.9375 -83.8125 24 -87.8125 C 29.070312 -91.8125 34.875 -94.675781 41.40625 -96.40625 C 47.9375 -98.132812 54.398438 -98.53125 60.796875 -97.59375 C 67.203125 -96.664062 73.140625 -94.632812 78.609375 -91.5 C 84.078125 -88.375 88.8125 -84.273438 92.8125 -79.203125 C 96.8125 -74.140625 99.675781 -68.34375 101.40625 -61.8125 C 103.144531 -55.269531 103.546875 -48.796875 102.609375 -42.390625 C 101.671875 -35.992188 99.632812 -30.09375 96.5 -24.6875 C 93.375 -19.289062 89.273438 -14.59375 84.203125 -10.59375 C 79.140625 -6.59375 73.34375 -3.726562 66.8125 -2 C 60.269531 -0.269531 53.796875 0.128906 47.390625 -0.796875 C 40.992188 -1.734375 35.0625 -3.765625 29.59375 -6.890625 C 24.132812 -10.023438 19.40625 -14.125 15.40625 -19.1875 C 11.40625 -24.257812 8.535156 -30.066406 6.796875 -36.609375 Z M 87.8125 -58.203125 C 86.476562 -63.003906 84.410156 -67.90625 81.609375 -72.90625 C 78.804688 -77.90625 75.40625 -82.304688 71.40625 -86.109375 C 67.40625 -89.910156 62.867188 -92.707031 57.796875 -94.5 C 52.734375 -96.300781 47.398438 -96.46875 41.796875 -95 C 36.203125 -93.539062 31.703125 -90.773438 28.296875 -86.703125 C 24.898438 -82.640625 22.398438 -77.972656 20.796875 -72.703125 C 19.203125 -67.441406 18.40625 -61.910156 18.40625 -56.109375 C 18.40625 -50.304688 19.070312 -45.003906 20.40625 -40.203125 C 21.738281 -35.398438 23.800781 -30.460938 26.59375 -25.390625 C 29.394531 -20.328125 32.796875 -15.925781 36.796875 -12.1875 C 40.796875 -8.457031 45.328125 -5.660156 50.390625 -3.796875 C 55.460938 -1.929688 60.800781 -1.800781 66.40625 -3.40625 C 72.007812 -4.863281 76.539062 -7.625 80 -11.6875 C 83.46875 -15.757812 86 -20.429688 87.59375 -25.703125 C 89.195312 -30.972656 89.96875 -36.503906 89.90625 -42.296875 C 89.84375 -48.097656 89.144531 -53.398438 87.8125 -58.203125 Z M 87.8125 -58.203125"></path></g></g></g><g fill-opacity="1" fill="#f6f4e9"><g transform="translate(536.9805, 336.701063)"><g><path d="M 5 -96.40625 C 5.800781 -96.40625 7.265625 -96.601562 9.390625 -97 C 11.523438 -97.40625 13.691406 -98.507812 15.890625 -100.3125 C 18.097656 -102.113281 20.035156 -104.847656 21.703125 -108.515625 C 23.367188 -112.179688 24.203125 -117.28125 24.203125 -123.8125 L 38.203125 -123.8125 C 38.203125 -115.8125 36.601562 -109.644531 33.40625 -105.3125 C 30.207031 -100.976562 25.40625 -98.007812 19 -96.40625 L 49 -96.40625 L 49 -95 L 31.609375 -95 L 31.609375 -37.203125 C 31.609375 -34.804688 31.738281 -31.90625 32 -28.5 C 32.269531 -25.101562 32.835938 -21.769531 33.703125 -18.5 C 34.566406 -15.226562 35.832031 -12.257812 37.5 -9.59375 C 39.164062 -6.925781 41.398438 -5.128906 44.203125 -4.203125 C 47.003906 -3.265625 49.738281 -3.257812 52.40625 -4.1875 C 55.070312 -5.125 57.503906 -6.59375 59.703125 -8.59375 C 61.898438 -10.59375 63.863281 -12.859375 65.59375 -15.390625 C 67.332031 -17.929688 68.738281 -20.335938 69.8125 -22.609375 C 70.601562 -24.472656 71.363281 -26.4375 72.09375 -28.5 C 72.832031 -30.570312 73.535156 -32.738281 74.203125 -35 L 76 -35 C 75.332031 -32.601562 74.632812 -30.300781 73.90625 -28.09375 C 73.175781 -25.894531 72.34375 -23.863281 71.40625 -22 C 70.207031 -19.195312 68.707031 -16.460938 66.90625 -13.796875 C 65.101562 -11.128906 63.066406 -8.695312 60.796875 -6.5 C 58.535156 -4.300781 56.003906 -2.535156 53.203125 -1.203125 C 50.398438 0.128906 47.332031 0.796875 44 0.796875 C 38.53125 0.796875 34.097656 -0.332031 30.703125 -2.59375 C 27.304688 -4.863281 24.640625 -7.796875 22.703125 -11.390625 C 20.765625 -14.992188 19.425781 -19.0625 18.6875 -23.59375 C 17.957031 -28.132812 17.59375 -32.671875 17.59375 -37.203125 L 17.59375 -82.8125 C 17.59375 -86.144531 16.457031 -89.007812 14.1875 -91.40625 C 11.925781 -93.800781 8.863281 -95 5 -95 Z M 5 -96.40625"></path></g></g></g><g fill-opacity="1" fill="#f6f4e9"><g transform="translate(614.577813, 336.701063)"><g><path d="M 78.203125 -1.796875 C 78.472656 -1.796875 78.875 -1.960938 79.40625 -2.296875 C 79.9375 -2.628906 80.4375 -3.328125 80.90625 -4.390625 C 81.375 -5.460938 81.804688 -7 82.203125 -9 C 82.609375 -11 82.8125 -13.664062 82.8125 -17 C 82.40625 -23.40625 81.867188 -30.207031 81.203125 -37.40625 C 80.535156 -44.601562 79.566406 -51.5 78.296875 -58.09375 C 77.035156 -64.695312 75.304688 -70.734375 73.109375 -76.203125 C 70.910156 -81.671875 68.007812 -85.9375 64.40625 -89 C 60.9375 -91.9375 57.203125 -93.269531 53.203125 -93 C 49.203125 -92.601562 45.398438 -90.804688 41.796875 -87.609375 C 40.335938 -86.273438 39.070312 -84.941406 38 -83.609375 C 35.601562 -80.410156 33.503906 -76.8125 31.703125 -72.8125 C 29.898438 -68.8125 28.398438 -64.707031 27.203125 -60.5 C 26.003906 -56.300781 25.132812 -52.035156 24.59375 -47.703125 C 24.0625 -43.367188 23.796875 -39.203125 23.796875 -35.203125 L 23.796875 -17.203125 C 23.796875 -13.867188 23.960938 -11.203125 24.296875 -9.203125 C 24.628906 -7.203125 25.0625 -5.632812 25.59375 -4.5 C 26.132812 -3.363281 26.671875 -2.628906 27.203125 -2.296875 C 27.734375 -1.960938 28.132812 -1.796875 28.40625 -1.796875 L 28.40625 0 L 5.203125 0 L 5.203125 -1.796875 C 5.460938 -1.796875 5.859375 -1.960938 6.390625 -2.296875 C 6.929688 -2.628906 7.429688 -3.363281 7.890625 -4.5 C 8.359375 -5.632812 8.789062 -7.203125 9.1875 -9.203125 C 9.59375 -11.203125 9.796875 -13.867188 9.796875 -17.203125 L 9.796875 -127.203125 C 9.398438 -130.671875 8.734375 -132.9375 7.796875 -134 C 6.867188 -135.070312 6.132812 -135.609375 5.59375 -135.609375 L 5 -137.40625 L 23.796875 -144.40625 L 23.796875 -52.40625 C 24.867188 -59.34375 26.535156 -65.507812 28.796875 -70.90625 C 31.066406 -76.300781 33.734375 -80.800781 36.796875 -84.40625 C 39.867188 -88.675781 43.503906 -91.910156 47.703125 -94.109375 C 51.898438 -96.304688 56.664062 -97.070312 62 -96.40625 C 68.9375 -95.34375 74.4375 -92.707031 78.5 -88.5 C 82.570312 -84.300781 85.738281 -79.203125 88 -73.203125 C 89.46875 -69.335938 90.703125 -64.9375 91.703125 -60 C 92.703125 -55.070312 93.535156 -49.90625 94.203125 -44.5 C 94.867188 -39.101562 95.398438 -33.632812 95.796875 -28.09375 C 96.203125 -22.5625 96.539062 -17.265625 96.8125 -12.203125 C 97.476562 -7.796875 98.242188 -4.957031 99.109375 -3.6875 C 99.972656 -2.425781 100.671875 -1.796875 101.203125 -1.796875 L 101.203125 0 L 78.203125 0 Z M 78.203125 -1.796875"></path></g></g></g><g fill-opacity="1" fill="#f6f4e9"><g transform="translate(717.374413, 336.701063)"><g><path d="M 5 -89.203125 L 23.796875 -96.40625 L 23.796875 -17.203125 C 23.796875 -13.867188 23.960938 -11.203125 24.296875 -9.203125 C 24.628906 -7.203125 25.0625 -5.632812 25.59375 -4.5 C 26.132812 -3.363281 26.671875 -2.628906 27.203125 -2.296875 C 27.734375 -1.960938 28.132812 -1.796875 28.40625 -1.796875 L 28.40625 0 L 5.203125 0 L 5.203125 -1.796875 C 5.597656 -1.796875 6.0625 -1.960938 6.59375 -2.296875 C 7.132812 -2.628906 7.632812 -3.363281 8.09375 -4.5 C 8.5625 -5.632812 8.992188 -7.203125 9.390625 -9.203125 C 9.796875 -11.203125 10 -13.867188 10 -17.203125 L 10 -79 C 9.46875 -82.601562 8.734375 -84.9375 7.796875 -86 C 6.867188 -87.070312 6.132812 -87.609375 5.59375 -87.609375 Z M 15.40625 -112.609375 C 12.738281 -112.609375 10.503906 -113.507812 8.703125 -115.3125 C 6.898438 -117.113281 6 -119.347656 6 -122.015625 C 6 -124.679688 6.898438 -126.910156 8.703125 -128.703125 C 10.503906 -130.503906 12.738281 -131.40625 15.40625 -131.40625 C 18.070312 -131.40625 20.300781 -130.503906 22.09375 -128.703125 C 23.894531 -126.910156 24.796875 -124.679688 24.796875 -122.015625 C 24.796875 -119.347656 23.894531 -117.113281 22.09375 -115.3125 C 20.300781 -113.507812 18.070312 -112.609375 15.40625 -112.609375 Z M 15.40625 -112.609375"></path></g></g></g><g fill-opacity="1" fill="#f6f4e9"><g transform="translate(747.373071, 336.701063)"><g><path d="M 6.796875 -35.40625 C 5.066406 -41.9375 4.664062 -48.398438 5.59375 -54.796875 C 6.53125 -61.203125 8.566406 -67.101562 11.703125 -72.5 C 14.835938 -77.90625 18.9375 -82.609375 24 -86.609375 C 29.070312 -90.609375 34.875 -93.472656 41.40625 -95.203125 C 48.332031 -97.066406 54.992188 -97.5 61.390625 -96.5 C 67.796875 -95.5 73.597656 -93.53125 78.796875 -90.59375 C 84.003906 -87.664062 88.472656 -83.9375 92.203125 -79.40625 C 95.941406 -74.875 98.609375 -69.941406 100.203125 -64.609375 C 95.398438 -64.609375 90.234375 -64.40625 84.703125 -64 C 79.171875 -63.601562 74.140625 -62.875 69.609375 -61.8125 C 73.335938 -61.9375 76.769531 -61.296875 79.90625 -59.890625 C 83.039062 -58.492188 85.738281 -56.597656 88 -54.203125 C 90.269531 -51.804688 92.070312 -49.003906 93.40625 -45.796875 C 94.738281 -42.597656 95.539062 -39.265625 95.8125 -35.796875 C 96.34375 -28.597656 94.835938 -22.363281 91.296875 -17.09375 C 87.765625 -11.832031 83.097656 -7.703125 77.296875 -4.703125 C 71.503906 -1.703125 65.003906 0.03125 57.796875 0.5 C 50.597656 0.96875 43.628906 0.00390625 36.890625 -2.390625 C 30.160156 -4.796875 24.0625 -8.695312 18.59375 -14.09375 C 13.132812 -19.5 9.203125 -26.601562 6.796875 -35.40625 Z M 18.59375 -49.796875 C 19 -45.929688 19.601562 -42.332031 20.40625 -39 C 22.9375 -29.40625 26.800781 -21.875 32 -16.40625 C 37.195312 -10.9375 42.828125 -7.203125 48.890625 -5.203125 C 54.960938 -3.203125 61.066406 -2.765625 67.203125 -3.890625 C 73.335938 -5.023438 78.671875 -7.328125 83.203125 -10.796875 C 87.734375 -14.265625 91.03125 -18.695312 93.09375 -24.09375 C 95.164062 -29.5 95.203125 -35.535156 93.203125 -42.203125 C 92.140625 -45.804688 90.40625 -49.070312 88 -52 C 85.601562 -54.9375 82.671875 -57.101562 79.203125 -58.5 C 75.734375 -59.90625 71.800781 -60.441406 67.40625 -60.109375 C 63.007812 -59.773438 58.34375 -58.140625 53.40625 -55.203125 C 48.601562 -52.398438 43.898438 -50.429688 39.296875 -49.296875 C 34.703125 -48.171875 30.472656 -47.738281 26.609375 -48 C 25.140625 -48.132812 23.738281 -48.300781 22.40625 -48.5 C 21.070312 -48.695312 19.800781 -49.128906 18.59375 -49.796875 Z M 84.8125 -65.609375 C 82.9375 -69.867188 80.53125 -73.96875 77.59375 -77.90625 C 74.664062 -81.84375 71.367188 -85.207031 67.703125 -88 C 64.035156 -90.800781 60 -92.800781 55.59375 -94 C 51.195312 -95.207031 46.597656 -95.144531 41.796875 -93.8125 C 37.265625 -92.601562 33.460938 -90.53125 30.390625 -87.59375 C 27.328125 -84.664062 24.894531 -81.269531 23.09375 -77.40625 C 21.300781 -73.539062 20.035156 -69.335938 19.296875 -64.796875 C 18.566406 -60.265625 18.332031 -55.800781 18.59375 -51.40625 C 20.863281 -50.332031 23.535156 -49.664062 26.609375 -49.40625 C 30.335938 -49.132812 34.4375 -49.566406 38.90625 -50.703125 C 43.375 -51.835938 47.941406 -53.738281 52.609375 -56.40625 C 58.203125 -59.601562 63.800781 -61.867188 69.40625 -63.203125 C 75.007812 -64.535156 80.144531 -65.335938 84.8125 -65.609375 Z M 84.8125 -65.609375"></path></g></g></g><g fill-opacity="1" fill="#fffaeb"><g transform="translate(452.710037, 381.055574)"><g><path d="M 23.890625 -3.046875 C 24.398438 -2.578125 24.65625 -2.078125 24.65625 -1.546875 C 24.65625 -1.203125 24.519531 -0.859375 24.25 -0.515625 C 23.976562 -0.171875 23.625 0 23.1875 0 C 22.769531 0 22.425781 -0.0976562 22.15625 -0.296875 L 18.78125 -3.078125 C 16.476562 -0.785156 13.59375 0.359375 10.125 0.359375 C 8.4375 0.359375 6.898438 -0.0195312 5.515625 -0.78125 C 4.140625 -1.550781 3.054688 -2.566406 2.265625 -3.828125 C 1.484375 -5.085938 1.09375 -6.414062 1.09375 -7.8125 C 1.09375 -9.519531 1.546875 -11.039062 2.453125 -12.375 C 3.359375 -13.707031 4.71875 -14.753906 6.53125 -15.515625 C 6.039062 -16.222656 5.671875 -16.894531 5.421875 -17.53125 C 5.179688 -18.164062 5.0625 -18.828125 5.0625 -19.515625 C 5.0625 -20.710938 5.363281 -21.804688 5.96875 -22.796875 C 6.582031 -23.785156 7.460938 -24.570312 8.609375 -25.15625 C 9.765625 -25.75 11.101562 -26.046875 12.625 -26.046875 C 14.3125 -26.046875 15.796875 -25.742188 17.078125 -25.140625 C 18.359375 -24.546875 19.234375 -23.785156 19.703125 -22.859375 C 19.867188 -22.515625 19.953125 -22.132812 19.953125 -21.71875 C 19.953125 -21.320312 19.8125 -20.988281 19.53125 -20.71875 C 19.25 -20.457031 18.878906 -20.328125 18.421875 -20.328125 C 17.878906 -20.328125 17.488281 -20.519531 17.25 -20.90625 C 16.726562 -21.644531 16.09375 -22.191406 15.34375 -22.546875 C 14.601562 -22.898438 13.695312 -23.078125 12.625 -23.078125 C 11.375 -23.078125 10.410156 -22.757812 9.734375 -22.125 C 9.066406 -21.488281 8.734375 -20.671875 8.734375 -19.671875 C 8.734375 -18.785156 9.050781 -17.890625 9.6875 -16.984375 C 10.320312 -16.078125 11.226562 -14.988281 12.40625 -13.71875 L 13.0625 -12.984375 C 14.476562 -11.421875 16.210938 -9.722656 18.265625 -7.890625 C 18.898438 -9.140625 19.34375 -10.507812 19.59375 -12 C 19.71875 -12.707031 20.207031 -13.0625 21.0625 -13.0625 C 21.550781 -13.0625 21.945312 -12.859375 22.25 -12.453125 C 22.550781 -12.046875 22.664062 -11.578125 22.59375 -11.046875 C 22.28125 -9.035156 21.671875 -7.25 20.765625 -5.6875 C 21.765625 -4.800781 22.804688 -3.921875 23.890625 -3.046875 Z M 10.828125 -2.9375 C 12.972656 -2.9375 14.816406 -3.679688 16.359375 -5.171875 C 13.742188 -7.472656 11.53125 -9.648438 9.71875 -11.703125 C 9.375 -12.066406 8.972656 -12.53125 8.515625 -13.09375 C 7.117188 -12.675781 6.125 -12.0625 5.53125 -11.25 C 4.945312 -10.445312 4.65625 -9.472656 4.65625 -8.328125 C 4.65625 -7.367188 4.875 -6.484375 5.3125 -5.671875 C 5.757812 -4.867188 6.445312 -4.210938 7.375 -3.703125 C 8.300781 -3.191406 9.453125 -2.9375 10.828125 -2.9375 Z M 10.828125 -2.9375"></path></g></g></g><g fill-opacity="1" fill="#fffaeb"><g transform="translate(488.767886, 381.055574)"><g></g></g></g><g fill-opacity="1" fill="#fffaeb"><g transform="translate(509.422659, 381.055574)"><g><path d="M 21.359375 -24.171875 C 21.941406 -23.859375 22.234375 -23.367188 22.234375 -22.703125 C 22.234375 -22.265625 22.085938 -21.863281 21.796875 -21.5 C 21.503906 -21.101562 21.097656 -20.90625 20.578125 -20.90625 C 20.234375 -20.90625 19.90625 -20.992188 19.59375 -21.171875 C 18.070312 -22.023438 16.429688 -22.453125 14.671875 -22.453125 C 12.835938 -22.453125 11.21875 -22.046875 9.8125 -21.234375 C 8.40625 -20.429688 7.3125 -19.300781 6.53125 -17.84375 C 5.75 -16.394531 5.359375 -14.726562 5.359375 -12.84375 C 5.359375 -10.8125 5.757812 -9.0625 6.5625 -7.59375 C 7.375 -6.125 8.488281 -5.003906 9.90625 -4.234375 C 11.320312 -3.460938 12.910156 -3.078125 14.671875 -3.078125 C 16.484375 -3.078125 18.125 -3.519531 19.59375 -4.40625 C 19.882812 -4.550781 20.203125 -4.625 20.546875 -4.625 C 21.085938 -4.625 21.515625 -4.414062 21.828125 -4 C 22.117188 -3.632812 22.265625 -3.242188 22.265625 -2.828125 C 22.265625 -2.535156 22.1875 -2.257812 22.03125 -2 C 21.875 -1.738281 21.660156 -1.535156 21.390625 -1.390625 C 20.429688 -0.859375 19.359375 -0.429688 18.171875 -0.109375 C 16.992188 0.203125 15.828125 0.359375 14.671875 0.359375 C 12.296875 0.359375 10.113281 -0.160156 8.125 -1.203125 C 6.132812 -2.253906 4.546875 -3.785156 3.359375 -5.796875 C 2.171875 -7.804688 1.578125 -10.15625 1.578125 -12.84375 C 1.578125 -15.3125 2.144531 -17.539062 3.28125 -19.53125 C 4.414062 -21.53125 5.976562 -23.097656 7.96875 -24.234375 C 9.96875 -25.367188 12.203125 -25.9375 14.671875 -25.9375 C 17.046875 -25.9375 19.273438 -25.347656 21.359375 -24.171875 Z M 21.359375 -24.171875"></path></g></g></g><g fill-opacity="1" fill="#fffaeb"><g transform="translate(543.316743, 381.055574)"><g><path d="M 26.375 -12.84375 C 26.375 -10.375 25.84375 -8.132812 24.78125 -6.125 C 23.71875 -4.125 22.242188 -2.539062 20.359375 -1.375 C 18.472656 -0.21875 16.347656 0.359375 13.984375 0.359375 C 11.609375 0.359375 9.476562 -0.21875 7.59375 -1.375 C 5.707031 -2.539062 4.234375 -4.125 3.171875 -6.125 C 2.109375 -8.132812 1.578125 -10.375 1.578125 -12.84375 C 1.578125 -15.3125 2.109375 -17.546875 3.171875 -19.546875 C 4.234375 -21.554688 5.707031 -23.140625 7.59375 -24.296875 C 9.476562 -25.460938 11.609375 -26.046875 13.984375 -26.046875 C 16.347656 -26.046875 18.472656 -25.460938 20.359375 -24.296875 C 22.242188 -23.140625 23.71875 -21.554688 24.78125 -19.546875 C 25.84375 -17.546875 26.375 -15.3125 26.375 -12.84375 Z M 22.59375 -12.84375 C 22.59375 -14.675781 22.222656 -16.332031 21.484375 -17.8125 C 20.753906 -19.289062 19.734375 -20.453125 18.421875 -21.296875 C 17.117188 -22.140625 15.640625 -22.5625 13.984375 -22.5625 C 12.316406 -22.5625 10.828125 -22.144531 9.515625 -21.3125 C 8.210938 -20.476562 7.191406 -19.320312 6.453125 -17.84375 C 5.722656 -16.363281 5.359375 -14.695312 5.359375 -12.84375 C 5.359375 -11.007812 5.722656 -9.351562 6.453125 -7.875 C 7.191406 -6.394531 8.210938 -5.234375 9.515625 -4.390625 C 10.828125 -3.546875 12.316406 -3.125 13.984375 -3.125 C 15.640625 -3.125 17.117188 -3.546875 18.421875 -4.390625 C 19.734375 -5.234375 20.753906 -6.394531 21.484375 -7.875 C 22.222656 -9.351562 22.59375 -11.007812 22.59375 -12.84375 Z M 22.59375 -12.84375"></path></g></g></g><g clip-path="url(#3320a96bd5)"><path fill-rule="evenodd" fill-opacity="1" d="M 215.578125 185.359375 C 215.363281 185.699219 214.140625 185.125 213.875 185.023438 C 212.03125 184.3125 210.160156 183.5 208.414062 182.570312 C 206.925781 181.777344 205.128906 181.253906 203.746094 180.273438 C 199.566406 177.324219 193.492188 167.371094 199.3125 163.492188 C 204.199219 160.234375 209.492188 169.257812 211.265625 172.359375 C 211.964844 173.582031 212.503906 174.730469 212.925781 176.078125 C 213.519531 177.976562 214.191406 179.875 214.828125 181.777344 C 215.023438 182.375 215.449219 182.980469 215.539062 183.597656 C 215.585938 183.929688 215.707031 184.847656 215.855469 184.550781 C 215.976562 184.308594 215.519531 182.921875 215.460938 182.648438 C 215.117188 181.054688 214.976562 179.375 214.828125 177.742188 C 214.691406 176.269531 214.746094 174.785156 214.746094 173.308594 C 214.746094 168.589844 216.695312 156.203125 224.246094 157.714844 C 227.144531 158.292969 227.386719 161.695312 227.253906 164.046875 C 226.949219 169.515625 222.855469 174.625 220.367188 179.246094 C 219.691406 180.503906 218.945312 181.691406 218.308594 182.964844 C 218 183.589844 217.585938 184.179688 217.28125 184.785156 C 217.203125 184.9375 216.964844 185.183594 216.964844 185.183594 C 216.964844 185.183594 217.09375 184.847656 217.203125 184.707031 C 217.699219 184.042969 218.089844 183.167969 218.785156 182.648438 C 220.386719 181.445312 222.03125 180.074219 223.691406 178.851562 C 224.847656 178 226.054688 177.351562 227.332031 176.710938 C 231.839844 174.460938 242.929688 170.386719 244.828125 177.980469 C 245.421875 180.355469 243.628906 182.046875 242.058594 183.519531 C 237.355469 187.925781 230.214844 187.058594 224.324219 186.609375 C 222.460938 186.464844 220.347656 186.660156 218.546875 186.210938 C 217.800781 186.023438 216.9375 186.207031 216.171875 186.054688 C 216.089844 186.035156 215.933594 185.972656 215.933594 185.972656 L 216.332031 185.972656 C 216.976562 185.972656 217.777344 186.28125 218.390625 186.449219 C 219.652344 186.800781 221.039062 187.234375 222.1875 187.875 C 226.613281 190.332031 236.300781 192.636719 235.328125 199.429688 C 234.527344 205.050781 228.3125 205.597656 224.40625 202.992188 C 220.828125 200.609375 215.300781 190.980469 215.300781 186.289062 C 215.300781 186.054688 215.261719 186.769531 215.300781 187.003906 C 215.390625 187.542969 215.503906 188.128906 215.617188 188.664062 C 215.984375 190.378906 216.3125 192.0625 216.488281 193.8125 C 216.945312 198.363281 216.792969 204.273438 213.324219 207.742188 C 212.109375 208.957031 210.414062 210.640625 208.492188 210.117188 C 206.578125 209.59375 205.820312 207.09375 205.722656 205.367188 C 205.425781 199.984375 208.421875 196.320312 211.105469 191.910156 C 211.941406 190.535156 212.949219 189.324219 213.796875 187.953125 C 213.894531 187.796875 214.601562 186.289062 214.984375 186.289062 C 215.359375 186.289062 214.539062 186.898438 214.273438 187.160156 C 213.839844 187.597656 213.363281 187.992188 212.925781 188.429688 C 211.683594 189.671875 210.316406 190.574219 208.890625 191.59375 C 205.28125 194.171875 199.660156 196.351562 195.195312 195.234375 C 193.414062 194.789062 191.308594 193.988281 190.523438 192.148438 C 188.828125 188.160156 191.546875 185.570312 194.71875 183.757812 C 199.777344 180.867188 209.992188 185.359375 215.578125 185.359375 Z M 215.578125 185.359375" fill="#f6f4e9"></path></g><g clip-path="url(#319d272411)"><path fill-rule="evenodd" fill-opacity="1" d="M 213.433594 173.652344 L 213.417969 173.621094 C 213.125 172.972656 212.796875 172.34375 212.429688 171.695312 C 211.148438 169.453125 208.089844 164.332031 204.65625 162.359375 C 202.683594 161.222656 200.59375 161.007812 198.558594 162.363281 C 195.609375 164.324219 195.054688 167.53125 195.914062 170.90625 C 196.980469 175.113281 200.316406 179.539062 202.949219 181.402344 C 203.425781 181.738281 203.945312 182.03125 204.488281 182.296875 C 204.570312 182.339844 204.65625 182.378906 204.738281 182.417969 C 203.476562 182.175781 202.222656 181.972656 201.023438 181.867188 C 198.402344 181.632812 196.015625 181.851562 194.21875 182.875 C 192.070312 184.101562 190.152344 185.6875 189.371094 187.707031 C 188.832031 189.097656 188.792969 190.695312 189.582031 192.550781 C 189.96875 193.46875 190.617188 194.1875 191.402344 194.746094 C 192.453125 195.488281 193.761719 195.941406 194.945312 196.238281 C 196.898438 196.726562 199.058594 196.648438 201.195312 196.179688 C 204.242188 195.511719 207.246094 194.054688 209.5 192.449219 L 209.535156 192.421875 C 208.089844 194.710938 206.648438 196.851562 205.710938 199.195312 C 204.953125 201.089844 204.515625 203.109375 204.644531 205.429688 C 204.707031 206.621094 205.058594 208.125 205.789062 209.28125 C 206.363281 210.1875 207.167969 210.882812 208.207031 211.167969 C 209.25 211.453125 210.242188 211.277344 211.164062 210.832031 C 212.285156 210.292969 213.292969 209.320312 214.097656 208.515625 C 215.636719 206.980469 216.59375 205.015625 217.144531 202.878906 C 217.675781 200.816406 217.820312 198.597656 217.769531 196.488281 C 219.65625 199.792969 221.964844 202.734375 223.773438 203.941406 C 225.988281 205.421875 228.863281 205.992188 231.296875 205.414062 C 233.867188 204.800781 235.988281 202.964844 236.472656 199.59375 C 236.832031 197.097656 235.988281 195.109375 234.476562 193.46875 C 232.113281 190.90625 227.925781 189.289062 224.761719 187.835938 C 228.238281 188.117188 232.101562 188.464844 235.648438 187.835938 C 238.320312 187.359375 240.816406 186.34375 242.886719 184.40625 C 243.941406 183.417969 245.0625 182.324219 245.664062 181.046875 C 246.136719 180.046875 246.324219 178.9375 246.011719 177.683594 C 245.074219 173.917969 242.285156 172.488281 238.914062 172.363281 C 234.71875 172.207031 229.554688 174.21875 226.777344 175.601562 C 225.980469 176 225.210938 176.402344 224.460938 176.847656 C 223.949219 177.15625 223.445312 177.484375 222.953125 177.847656 L 222.347656 178.316406 C 223.710938 175.996094 225.316406 173.5625 226.539062 171.03125 C 227.617188 168.796875 228.402344 166.488281 228.535156 164.117188 C 228.625 162.503906 228.523438 160.464844 227.746094 158.941406 C 227.121094 157.710938 226.101562 156.769531 224.5 156.449219 C 220.792969 155.703125 218.164062 157.660156 216.40625 160.730469 C 214.179688 164.625 213.4375 170.371094 213.433594 173.308594 Z M 214.507812 188.792969 L 214.527344 188.898438 C 214.746094 189.910156 214.949219 190.910156 215.117188 191.921875 C 215.222656 192.582031 215.316406 193.246094 215.382812 193.921875 C 215.648438 196.519531 215.714844 199.582031 215.011719 202.332031 C 214.566406 204.082031 213.808594 205.707031 212.550781 206.96875 C 211.902344 207.617188 211.117188 208.429688 210.214844 208.871094 C 209.765625 209.085938 209.285156 209.207031 208.78125 209.066406 C 208.125 208.890625 207.699219 208.335938 207.398438 207.714844 C 207.023438 206.941406 206.84375 206.042969 206.804688 205.308594 C 206.691406 203.332031 207.066406 201.605469 207.707031 199.988281 C 208.738281 197.394531 210.4375 195.066406 212.015625 192.464844 Z M 216.515625 187.390625 L 216.527344 187.484375 L 216.617188 187.949219 C 217.046875 189.976562 218.132812 192.484375 219.441406 194.851562 C 221.179688 198 223.328125 200.910156 225.035156 202.046875 C 226.726562 203.167969 228.910156 203.628906 230.761719 203.183594 C 232.476562 202.769531 233.867188 201.519531 234.183594 199.269531 C 234.515625 196.929688 233.277344 195.261719 231.519531 193.925781 C 228.558594 191.675781 224.183594 190.324219 221.617188 188.902344 C 221.203125 188.671875 220.75 188.472656 220.289062 188.292969 C 219.554688 188.011719 218.792969 187.785156 218.074219 187.585938 C 217.777344 187.503906 217.441406 187.390625 217.097656 187.296875 C 216.921875 187.300781 216.746094 187.300781 216.578125 187.292969 L 216.5 187.285156 Z M 212.785156 186.09375 C 209.210938 185.53125 204.753906 184.214844 200.847656 183.875 C 198.683594 183.6875 196.707031 183.789062 195.222656 184.640625 C 193.789062 185.460938 192.4375 186.441406 191.660156 187.683594 C 190.960938 188.796875 190.78125 190.132812 191.46875 191.746094 C 191.773438 192.457031 192.34375 192.949219 193 193.324219 C 193.761719 193.761719 194.640625 194.035156 195.445312 194.234375 C 197.511719 194.75 199.847656 194.476562 202.078125 193.800781 C 204.375 193.101562 206.566406 191.96875 208.28125 190.742188 C 209.125 190.136719 209.945312 189.574219 210.734375 188.957031 C 211.230469 188.5625 211.714844 188.148438 212.179688 187.683594 L 213.347656 186.585938 C 213.386719 186.511719 213.433594 186.4375 213.480469 186.363281 L 213.378906 186.324219 C 213.179688 186.246094 212.984375 186.171875 212.785156 186.09375 Z M 218.59375 185.011719 L 219.089844 184.136719 C 219.222656 183.957031 219.359375 183.785156 219.535156 183.652344 L 224.429688 179.851562 C 224.96875 179.457031 225.519531 179.105469 226.085938 178.78125 C 226.671875 178.445312 227.269531 178.132812 227.890625 177.824219 C 230.394531 176.566406 235.039062 174.683594 238.824219 174.816406 C 241.078125 174.898438 243.011719 175.757812 243.644531 178.273438 C 243.855469 179.109375 243.621094 179.816406 243.21875 180.449219 C 242.703125 181.265625 241.9375 181.96875 241.226562 182.636719 C 239.515625 184.246094 237.4375 185.066406 235.226562 185.464844 C 231.699219 186.097656 227.839844 185.679688 224.417969 185.417969 C 223.121094 185.320312 221.703125 185.386719 220.355469 185.285156 C 219.832031 185.246094 219.320312 185.183594 218.835938 185.0625 C 218.757812 185.042969 218.675781 185.023438 218.59375 185.011719 Z M 214.167969 183.644531 C 213.332031 183.320312 212.5 182.976562 211.671875 182.613281 C 210.785156 182.21875 209.910156 181.796875 209.066406 181.347656 C 208.015625 180.789062 206.8125 180.359375 205.703125 179.816406 C 205.296875 179.617188 204.902344 179.402344 204.539062 179.148438 C 202.300781 177.570312 199.476562 173.800781 198.5625 170.230469 C 198 168.039062 198.15625 165.898438 200.066406 164.625 C 201.558594 163.625 203.074219 164.359375 204.464844 165.519531 C 206.996094 167.636719 209.113281 171.300781 210.101562 173.023438 C 210.429688 173.597656 210.722656 174.152344 210.980469 174.722656 C 211.234375 175.285156 211.457031 175.859375 211.652344 176.476562 L 213.566406 182.199219 Z M 216.917969 182.875 L 216.898438 182.90625 C 216.828125 182.660156 216.773438 182.460938 216.753906 182.371094 C 216.625 181.765625 216.523438 181.148438 216.441406 180.523438 C 216.3125 179.558594 216.226562 178.582031 216.140625 177.621094 C 216.089844 177.066406 216.066406 176.507812 216.058594 175.949219 C 216.042969 175.070312 216.0625 174.1875 216.058594 173.308594 C 216.058594 170.675781 216.671875 165.515625 218.664062 162.019531 C 219.835938 159.960938 221.507812 158.484375 223.992188 158.980469 C 224.933594 159.167969 225.410156 159.847656 225.671875 160.640625 C 226.023438 161.699219 226.03125 162.953125 225.972656 163.976562 C 225.863281 166.015625 225.167969 168 224.242188 169.925781 C 222.773438 172.988281 220.726562 175.902344 219.253906 178.648438 L 217.183594 182.402344 Z M 216.917969 182.875" fill="#f6f4e9"></path></g><path fill-rule="evenodd" fill-opacity="1" d="M 265.394531 215.152344 C 265.222656 215.394531 264.246094 214.988281 264.03125 214.914062 C 262.554688 214.410156 261.0625 213.828125 259.664062 213.167969 C 258.476562 212.601562 257.039062 212.230469 255.929688 211.535156 C 252.589844 209.433594 247.734375 202.351562 252.386719 199.589844 C 256.296875 197.269531 260.527344 203.691406 261.945312 205.898438 C 262.503906 206.769531 262.9375 207.585938 263.273438 208.546875 C 263.746094 209.898438 264.285156 211.25 264.792969 212.605469 C 264.949219 213.027344 265.289062 213.457031 265.363281 213.898438 C 265.398438 214.136719 265.496094 214.789062 265.613281 214.574219 C 265.710938 214.402344 265.34375 213.417969 265.296875 213.222656 C 265.023438 212.089844 264.910156 210.894531 264.792969 209.730469 C 264.683594 208.683594 264.730469 207.628906 264.730469 206.574219 C 264.730469 203.21875 266.285156 194.402344 272.324219 195.476562 C 274.640625 195.890625 274.832031 198.3125 274.730469 199.984375 C 274.484375 203.875 271.210938 207.511719 269.222656 210.800781 C 268.679688 211.695312 268.085938 212.542969 267.578125 213.449219 C 267.328125 213.894531 266.996094 214.3125 266.753906 214.746094 C 266.695312 214.851562 266.5 215.027344 266.5 215.027344 C 266.5 215.027344 266.605469 214.789062 266.691406 214.6875 C 267.089844 214.214844 267.402344 213.59375 267.957031 213.222656 C 269.238281 212.367188 270.554688 211.390625 271.878906 210.519531 C 272.804688 209.914062 273.769531 209.453125 274.792969 209 C 278.394531 207.394531 287.261719 204.496094 288.78125 209.898438 C 289.253906 211.589844 287.820312 212.792969 286.5625 213.84375 C 282.804688 216.980469 277.09375 216.363281 272.386719 216.039062 C 270.894531 215.9375 269.207031 216.078125 267.765625 215.757812 C 267.167969 215.625 266.480469 215.753906 265.867188 215.644531 C 265.800781 215.632812 265.679688 215.589844 265.679688 215.589844 L 265.996094 215.589844 C 266.511719 215.589844 267.152344 215.808594 267.640625 215.929688 C 268.648438 216.179688 269.757812 216.488281 270.679688 216.941406 C 274.214844 218.691406 281.960938 220.332031 281.183594 225.167969 C 280.542969 229.167969 275.574219 229.558594 272.449219 227.703125 C 269.59375 226.007812 265.171875 219.152344 265.171875 215.816406 C 265.171875 215.644531 265.140625 216.15625 265.171875 216.324219 C 265.242188 216.707031 265.332031 217.121094 265.425781 217.503906 C 265.71875 218.722656 265.980469 219.921875 266.121094 221.167969 C 266.484375 224.410156 266.363281 228.613281 263.589844 231.082031 C 262.617188 231.949219 261.265625 233.148438 259.730469 232.773438 C 258.195312 232.402344 257.589844 230.621094 257.511719 229.394531 C 257.273438 225.5625 259.671875 222.953125 261.816406 219.816406 C 262.488281 218.835938 263.289062 217.972656 263.96875 217 C 264.046875 216.886719 264.613281 215.816406 264.917969 215.816406 C 265.21875 215.816406 264.5625 216.246094 264.347656 216.433594 C 264 216.742188 263.621094 217.027344 263.273438 217.335938 C 262.277344 218.222656 261.183594 218.863281 260.046875 219.589844 C 257.160156 221.425781 252.667969 222.976562 249.09375 222.183594 C 247.671875 221.863281 245.988281 221.292969 245.363281 219.984375 C 244.003906 217.144531 246.179688 215.300781 248.714844 214.011719 C 252.757812 211.957031 260.925781 215.152344 265.394531 215.152344 Z M 265.394531 215.152344" fill="#f6f4e9"></path><g clip-path="url(#8efdb53922)"><path fill-rule="evenodd" fill-opacity="1" d="M 263.441406 205.777344 C 263.324219 205.578125 263.199219 205.378906 263.070312 205.175781 C 262.011719 203.519531 259.4375 199.714844 256.578125 198.335938 C 254.992188 197.570312 253.324219 197.457031 251.695312 198.421875 C 249.121094 199.945312 248.664062 202.445312 249.433594 205.070312 C 250.289062 207.984375 252.789062 211.035156 254.882812 212.492188 C 254.507812 212.445312 254.136719 212.40625 253.769531 212.375 C 251.648438 212.207031 249.710938 212.367188 248.253906 213.105469 C 246.53125 213.980469 244.992188 215.125 244.316406 216.554688 C 243.796875 217.660156 243.726562 218.9375 244.433594 220.425781 C 244.777344 221.144531 245.347656 221.710938 246.042969 222.140625 C 246.886719 222.660156 247.925781 222.980469 248.871094 223.191406 C 250.796875 223.621094 252.972656 223.441406 255.058594 222.890625 C 256.703125 222.453125 258.289062 221.792969 259.640625 221.046875 C 258.761719 222.28125 257.9375 223.488281 257.347656 224.777344 C 256.699219 226.199219 256.328125 227.714844 256.433594 229.460938 C 256.488281 230.390625 256.804688 231.574219 257.464844 232.460938 C 257.949219 233.117188 258.613281 233.621094 259.472656 233.832031 C 260.316406 234.039062 261.121094 233.917969 261.867188 233.605469 C 262.808594 233.214844 263.648438 232.496094 264.316406 231.902344 C 265.574219 230.785156 266.367188 229.359375 266.828125 227.808594 C 267.203125 226.546875 267.355469 225.195312 267.371094 223.882812 C 268.828125 226.027344 270.519531 227.878906 271.867188 228.683594 C 274.011719 229.957031 276.902344 230.292969 279.066406 229.425781 C 280.71875 228.765625 281.984375 227.445312 282.324219 225.351562 C 282.648438 223.351562 281.863281 221.765625 280.445312 220.480469 C 279.015625 219.183594 276.851562 218.226562 274.816406 217.402344 C 276.988281 217.539062 279.253906 217.597656 281.382812 217.273438 C 283.582031 216.9375 285.636719 216.191406 287.34375 214.777344 C 288.199219 214.0625 289.105469 213.265625 289.609375 212.347656 C 290.066406 211.523438 290.246094 210.605469 289.957031 209.570312 C 289.160156 206.71875 286.796875 205.605469 283.910156 205.542969 C 280.5625 205.472656 276.492188 206.882812 274.285156 207.863281 C 273.644531 208.144531 273.027344 208.433594 272.425781 208.75 C 272.246094 208.847656 272.066406 208.949219 271.886719 209.050781 C 272.980469 207.449219 274.132812 205.777344 274.925781 204.046875 C 275.519531 202.75 275.921875 201.421875 276.011719 200.0625 C 276.089844 198.792969 275.976562 197.183594 275.253906 196.007812 C 274.710938 195.125 273.867188 194.441406 272.550781 194.203125 C 269.601562 193.675781 267.488281 195.007812 266.035156 197.117188 C 264.285156 199.65625 263.578125 203.417969 263.441406 205.777344 Z M 264.429688 218.144531 C 264.539062 218.609375 264.644531 219.074219 264.738281 219.542969 C 264.851562 220.117188 264.949219 220.699219 265.019531 221.292969 C 265.226562 223.113281 265.28125 225.261719 264.714844 227.183594 C 264.375 228.347656 263.800781 229.425781 262.859375 230.265625 C 262.425781 230.65625 261.90625 231.128906 261.320312 231.449219 C 260.910156 231.671875 260.464844 231.832031 259.984375 231.714844 C 259.546875 231.609375 259.253906 231.285156 259.046875 230.917969 C 258.757812 230.410156 258.625 229.8125 258.59375 229.324219 C 258.507812 227.964844 258.804688 226.78125 259.308594 225.667969 C 260.128906 223.859375 261.460938 222.234375 262.699219 220.417969 Z M 266.429688 216.867188 L 267.355469 217.074219 C 267.925781 217.214844 268.53125 217.375 269.109375 217.570312 C 269.472656 217.695312 269.828125 217.835938 270.15625 217.996094 C 272.15625 218.980469 275.53125 219.917969 277.890625 221.449219 C 279.253906 222.332031 280.296875 223.40625 280.042969 224.984375 C 279.804688 226.496094 278.703125 227.28125 277.398438 227.53125 C 275.972656 227.800781 274.320312 227.484375 273.03125 226.722656 C 271.714844 225.945312 270.0625 223.953125 268.710938 221.796875 C 267.6875 220.164062 266.820312 218.433594 266.464844 217.027344 Z M 262.578125 215.875 L 263.011719 216.03125 L 263.132812 216.074219 L 262.570312 216.546875 C 262.203125 216.875 261.820312 217.167969 261.429688 217.441406 C 260.804688 217.878906 260.152344 218.277344 259.480469 218.703125 C 258.113281 219.578125 256.355469 220.382812 254.523438 220.875 C 252.769531 221.34375 250.941406 221.53125 249.320312 221.171875 C 248.703125 221.035156 248.027344 220.851562 247.433594 220.554688 C 246.949219 220.316406 246.511719 220.007812 246.289062 219.542969 C 245.789062 218.503906 245.933594 217.648438 246.460938 216.941406 C 247.074219 216.117188 248.097656 215.46875 249.175781 214.917969 C 250.34375 214.320312 251.90625 214.253906 253.613281 214.386719 C 256.527344 214.613281 259.824219 215.441406 262.578125 215.875 Z M 268.300781 214.65625 L 268.378906 214.535156 C 268.460938 214.4375 268.546875 214.339844 268.652344 214.269531 L 272.566406 211.5625 C 272.988281 211.285156 273.425781 211.039062 273.871094 210.808594 C 274.335938 210.570312 274.808594 210.351562 275.296875 210.136719 C 277.261719 209.257812 280.878906 207.949219 283.863281 208.003906 C 285.589844 208.035156 287.121094 208.523438 287.605469 210.230469 C 287.738281 210.699219 287.558594 211.089844 287.300781 211.445312 C 286.902344 211.992188 286.324219 212.464844 285.785156 212.910156 C 284.429688 214.046875 282.773438 214.617188 281.015625 214.890625 C 278.222656 215.324219 275.175781 215.03125 272.46875 214.851562 C 271.433594 214.78125 270.300781 214.828125 269.222656 214.757812 C 268.910156 214.738281 268.601562 214.707031 268.300781 214.65625 Z M 263.664062 213.308594 C 263.21875 213.152344 262.777344 212.984375 262.335938 212.8125 C 261.628906 212.53125 260.933594 212.234375 260.257812 211.917969 C 259.417969 211.519531 258.457031 211.214844 257.570312 210.828125 C 257.253906 210.691406 256.945312 210.542969 256.664062 210.367188 C 254.949219 209.289062 252.777344 206.734375 252.054688 204.296875 C 251.648438 202.917969 251.730469 201.558594 253.078125 200.757812 C 254.164062 200.113281 255.265625 200.570312 256.28125 201.296875 C 258.320312 202.753906 260.027344 205.398438 260.816406 206.625 C 261.070312 207.015625 261.296875 207.398438 261.496094 207.789062 C 261.691406 208.171875 261.863281 208.566406 262.011719 208.988281 L 263.546875 213.070312 Z M 266.542969 212.726562 C 266.460938 212.371094 266.398438 212.007812 266.34375 211.644531 C 266.242188 210.960938 266.175781 210.273438 266.105469 209.597656 C 266.066406 209.214844 266.046875 208.832031 266.039062 208.449219 C 266.027344 207.824219 266.042969 207.199219 266.042969 206.574219 C 266.039062 204.710938 266.535156 200.996094 268.179688 198.59375 C 269.058594 197.308594 270.308594 196.433594 272.097656 196.75 C 272.699219 196.855469 273.035156 197.21875 273.210938 197.667969 C 273.492188 198.371094 273.488281 199.21875 273.449219 199.902344 C 273.363281 201.3125 272.808594 202.675781 272.089844 204.003906 C 270.917969 206.160156 269.304688 208.210938 268.140625 210.144531 Z M 266.542969 212.726562" fill="#f6f4e9"></path></g><path fill-rule="nonzero" fill-opacity="1" d="M 268.828125 214.113281 C 268.828125 214.546875 268.742188 214.960938 268.570312 215.359375 C 268.398438 215.761719 268.15625 216.113281 267.839844 216.417969 C 267.523438 216.722656 267.160156 216.957031 266.75 217.121094 C 266.335938 217.289062 265.90625 217.371094 265.460938 217.371094 C 265.011719 217.371094 264.582031 217.289062 264.171875 217.121094 C 263.757812 216.957031 263.394531 216.722656 263.078125 216.417969 C 262.761719 216.113281 262.519531 215.761719 262.347656 215.359375 C 262.179688 214.960938 262.09375 214.546875 262.09375 214.113281 C 262.09375 213.683594 262.179688 213.269531 262.347656 212.867188 C 262.519531 212.46875 262.761719 212.117188 263.078125 211.8125 C 263.394531 211.507812 263.757812 211.273438 264.171875 211.105469 C 264.582031 210.941406 265.011719 210.859375 265.460938 210.859375 C 265.90625 210.859375 266.335938 210.941406 266.75 211.105469 C 267.160156 211.273438 267.523438 211.507812 267.839844 211.8125 C 268.15625 212.117188 268.398438 212.46875 268.570312 212.867188 C 268.742188 213.269531 268.828125 213.683594 268.828125 214.113281 Z M 268.828125 214.113281" fill="#dfaf36"></path><path fill-rule="evenodd" fill-opacity="1" d="M 265.460938 209.867188 C 264.265625 209.84375 263.183594 210.304688 262.382812 211.039062 C 261.539062 211.8125 261.023438 212.90625 261 214.113281 C 260.976562 215.339844 261.488281 216.449219 262.3125 217.265625 C 263.113281 218.054688 264.226562 218.539062 265.460938 218.5625 C 266.707031 218.585938 267.835938 218.105469 268.675781 217.335938 C 269.558594 216.527344 270.09375 215.382812 270.121094 214.113281 C 270.144531 212.832031 269.605469 211.671875 268.746094 210.820312 C 267.910156 209.996094 266.746094 209.492188 265.460938 209.464844 Z M 265.460938 212.253906 C 266.011719 212.242188 266.523438 212.429688 266.894531 212.769531 C 267.265625 213.109375 267.523438 213.578125 267.53125 214.113281 C 267.542969 214.664062 267.332031 215.171875 266.964844 215.535156 C 266.578125 215.914062 266.050781 216.167969 265.460938 216.179688 C 264.855469 216.191406 264.292969 215.980469 263.886719 215.609375 C 263.472656 215.230469 263.195312 214.707031 263.183594 214.113281 C 263.171875 213.507812 263.410156 212.953125 263.816406 212.550781 C 264.238281 212.132812 264.8125 211.863281 265.460938 211.851562 Z M 265.460938 212.253906" fill="#dfaf36"></path><g clip-path="url(#d0400339f3)"><path fill-rule="evenodd" fill-opacity="1" d="M 678 185.359375 C 677.785156 185.699219 676.566406 185.125 676.300781 185.023438 C 674.453125 184.3125 672.582031 183.5 670.835938 182.570312 C 669.351562 181.777344 667.550781 181.253906 666.167969 180.273438 C 661.988281 177.324219 655.914062 167.371094 661.734375 163.492188 C 666.625 160.234375 671.914062 169.257812 673.6875 172.359375 C 674.386719 173.582031 674.929688 174.730469 675.351562 176.078125 C 675.941406 177.976562 676.617188 179.875 677.25 181.777344 C 677.449219 182.375 677.875 182.980469 677.960938 183.597656 C 678.007812 183.929688 678.128906 184.847656 678.277344 184.550781 C 678.398438 184.308594 677.941406 182.921875 677.882812 182.648438 C 677.542969 181.054688 677.398438 179.375 677.25 177.742188 C 677.117188 176.269531 677.171875 174.785156 677.171875 173.308594 C 677.171875 168.589844 679.121094 156.203125 686.667969 157.714844 C 689.566406 158.292969 689.808594 161.695312 689.675781 164.046875 C 689.375 169.515625 685.277344 174.625 682.789062 179.246094 C 682.113281 180.503906 681.371094 181.691406 680.734375 182.964844 C 680.421875 183.589844 680.007812 184.179688 679.703125 184.785156 C 679.628906 184.9375 679.386719 185.183594 679.386719 185.183594 C 679.386719 185.183594 679.519531 184.847656 679.625 184.707031 C 680.125 184.042969 680.515625 183.167969 681.207031 182.648438 C 682.8125 181.445312 684.457031 180.074219 686.117188 178.851562 C 687.269531 178 688.476562 177.351562 689.757812 176.710938 C 694.261719 174.460938 705.351562 170.386719 707.25 177.980469 C 707.84375 180.355469 706.054688 182.046875 704.480469 183.519531 C 699.78125 187.925781 692.636719 187.058594 686.75 186.609375 C 684.882812 186.464844 682.769531 186.660156 680.96875 186.210938 C 680.222656 186.023438 679.359375 186.207031 678.59375 186.054688 C 678.511719 186.035156 678.359375 185.972656 678.359375 185.972656 L 678.753906 185.972656 C 679.398438 185.972656 680.203125 186.28125 680.8125 186.449219 C 682.074219 186.800781 683.460938 187.234375 684.613281 187.875 C 689.035156 190.332031 698.722656 192.636719 697.75 199.429688 C 696.949219 205.050781 690.734375 205.597656 686.828125 202.992188 C 683.253906 200.609375 677.722656 190.980469 677.722656 186.289062 C 677.722656 186.054688 677.6875 186.769531 677.722656 187.003906 C 677.816406 187.542969 677.925781 188.128906 678.042969 188.664062 C 678.410156 190.378906 678.738281 192.0625 678.910156 193.8125 C 679.367188 198.363281 679.214844 204.273438 675.746094 207.742188 C 674.53125 208.957031 672.839844 210.640625 670.917969 210.117188 C 669 209.59375 668.242188 207.09375 668.148438 205.367188 C 667.847656 199.984375 670.84375 196.320312 673.527344 191.910156 C 674.367188 190.535156 675.371094 189.324219 676.21875 187.953125 C 676.320312 187.796875 677.027344 186.289062 677.40625 186.289062 C 677.78125 186.289062 676.960938 186.898438 676.695312 187.160156 C 676.261719 187.597656 675.785156 187.992188 675.351562 188.429688 C 674.105469 189.671875 672.738281 190.574219 671.3125 191.59375 C 667.707031 194.171875 662.085938 196.351562 657.617188 195.234375 C 655.835938 194.789062 653.730469 193.988281 652.949219 192.148438 C 651.25 188.160156 653.972656 185.570312 657.144531 183.757812 C 662.199219 180.867188 672.417969 185.359375 678 185.359375 Z M 678 185.359375" fill="#f6f4e9"></path></g><g clip-path="url(#3e97889fd6)"><path fill-rule="evenodd" fill-opacity="1" d="M 675.855469 173.652344 L 675.84375 173.621094 C 675.550781 172.972656 675.222656 172.34375 674.851562 171.695312 C 673.574219 169.453125 670.511719 164.332031 667.082031 162.359375 C 665.105469 161.222656 663.019531 161.007812 660.980469 162.363281 C 658.035156 164.324219 657.476562 167.53125 658.335938 170.90625 C 659.40625 175.113281 662.738281 179.539062 665.371094 181.402344 C 665.847656 181.738281 666.367188 182.03125 666.910156 182.296875 C 666.992188 182.339844 667.078125 182.378906 667.164062 182.417969 C 665.898438 182.175781 664.648438 181.972656 663.449219 181.867188 C 660.824219 181.632812 658.4375 181.851562 656.640625 182.875 C 654.492188 184.101562 652.574219 185.6875 651.792969 187.707031 C 651.257812 189.097656 651.21875 190.695312 652.003906 192.550781 C 652.394531 193.46875 653.039062 194.1875 653.828125 194.746094 C 654.875 195.488281 656.183594 195.941406 657.367188 196.238281 C 659.320312 196.726562 661.480469 196.648438 663.617188 196.179688 C 666.667969 195.511719 669.667969 194.054688 671.921875 192.449219 L 671.957031 192.421875 C 670.515625 194.710938 669.070312 196.851562 668.132812 199.195312 C 667.375 201.089844 666.941406 203.109375 667.066406 205.429688 C 667.132812 206.621094 667.480469 208.125 668.214844 209.28125 C 668.789062 210.1875 669.589844 210.882812 670.628906 211.167969 C 671.671875 211.453125 672.664062 211.277344 673.585938 210.832031 C 674.707031 210.292969 675.714844 209.320312 676.519531 208.515625 C 678.058594 206.980469 679.015625 205.015625 679.566406 202.878906 C 680.097656 200.816406 680.242188 198.597656 680.191406 196.488281 C 682.078125 199.792969 684.386719 202.734375 686.195312 203.941406 C 688.414062 205.421875 691.289062 205.992188 693.71875 205.414062 C 696.289062 204.800781 698.410156 202.964844 698.894531 199.59375 C 699.253906 197.097656 698.410156 195.109375 696.898438 193.46875 C 694.535156 190.90625 690.351562 189.289062 687.183594 187.835938 C 690.664062 188.117188 694.523438 188.464844 698.070312 187.835938 C 700.742188 187.359375 703.238281 186.34375 705.308594 184.40625 C 706.363281 183.417969 707.484375 182.324219 708.085938 181.046875 C 708.5625 180.046875 708.746094 178.9375 708.433594 177.683594 C 707.496094 173.917969 704.710938 172.488281 701.335938 172.363281 C 697.144531 172.207031 691.980469 174.21875 689.203125 175.601562 C 688.402344 176 687.632812 176.402344 686.886719 176.847656 C 686.371094 177.15625 685.871094 177.484375 685.375 177.847656 L 684.769531 178.316406 C 686.132812 175.996094 687.742188 173.5625 688.964844 171.03125 C 690.042969 168.796875 690.824219 166.488281 690.957031 164.117188 C 691.050781 162.503906 690.945312 160.464844 690.167969 158.941406 C 689.542969 157.710938 688.523438 156.769531 686.921875 156.449219 C 683.21875 155.703125 680.585938 157.660156 678.828125 160.730469 C 676.601562 164.625 675.859375 170.371094 675.859375 173.308594 Z M 676.929688 188.792969 L 676.949219 188.898438 C 677.167969 189.910156 677.371094 190.910156 677.539062 191.921875 C 677.648438 192.582031 677.738281 193.246094 677.808594 193.921875 C 678.070312 196.519531 678.136719 199.582031 677.4375 202.332031 C 676.988281 204.082031 676.230469 205.707031 674.972656 206.96875 C 674.324219 207.617188 673.539062 208.429688 672.636719 208.871094 C 672.1875 209.085938 671.710938 209.207031 671.203125 209.066406 C 670.546875 208.890625 670.125 208.335938 669.820312 207.714844 C 669.445312 206.941406 669.269531 206.042969 669.226562 205.308594 C 669.113281 203.332031 669.488281 201.605469 670.128906 199.988281 C 671.164062 197.394531 672.859375 195.066406 674.4375 192.464844 Z M 678.9375 187.390625 L 678.953125 187.484375 L 679.039062 187.949219 C 679.46875 189.976562 680.554688 192.484375 681.863281 194.851562 C 683.605469 198 685.753906 200.910156 687.460938 202.046875 C 689.148438 203.167969 691.335938 203.628906 693.183594 203.183594 C 694.902344 202.769531 696.289062 201.519531 696.609375 199.269531 C 696.941406 196.929688 695.699219 195.261719 693.945312 193.925781 C 690.980469 191.675781 686.609375 190.324219 684.039062 188.902344 C 683.625 188.671875 683.175781 188.472656 682.710938 188.292969 C 681.980469 188.011719 681.214844 187.785156 680.496094 187.585938 C 680.203125 187.503906 679.863281 187.390625 679.519531 187.296875 C 679.34375 187.300781 679.171875 187.300781 679 187.292969 L 678.921875 187.285156 Z M 675.210938 186.09375 C 671.636719 185.53125 667.175781 184.214844 663.269531 183.875 C 661.109375 183.6875 659.128906 183.789062 657.648438 184.640625 C 656.210938 185.460938 654.863281 186.441406 654.082031 187.683594 C 653.382812 188.796875 653.203125 190.132812 653.890625 191.746094 C 654.195312 192.457031 654.769531 192.949219 655.421875 193.324219 C 656.1875 193.761719 657.066406 194.035156 657.867188 194.234375 C 659.9375 194.75 662.269531 194.476562 664.503906 193.800781 C 666.796875 193.101562 668.988281 191.96875 670.703125 190.742188 C 671.546875 190.136719 672.371094 189.574219 673.15625 188.957031 C 673.65625 188.5625 674.140625 188.148438 674.605469 187.683594 L 675.769531 186.585938 C 675.8125 186.511719 675.855469 186.4375 675.902344 186.363281 L 675.800781 186.324219 C 675.605469 186.246094 675.40625 186.171875 675.210938 186.09375 Z M 681.019531 185.011719 L 681.515625 184.136719 C 681.644531 183.957031 681.785156 183.785156 681.960938 183.652344 L 686.855469 179.851562 C 687.390625 179.457031 687.941406 179.105469 688.507812 178.78125 C 689.09375 178.445312 689.695312 178.132812 690.3125 177.824219 C 692.816406 176.566406 697.460938 174.683594 701.246094 174.816406 C 703.503906 174.898438 705.433594 175.757812 706.066406 178.273438 C 706.277344 179.109375 706.042969 179.816406 705.644531 180.449219 C 705.128906 181.265625 704.359375 181.96875 703.652344 182.636719 C 701.9375 184.246094 699.859375 185.066406 697.648438 185.464844 C 694.121094 186.097656 690.261719 185.679688 686.839844 185.417969 C 685.542969 185.320312 684.128906 185.386719 682.777344 185.285156 C 682.257812 185.246094 681.742188 185.183594 681.257812 185.0625 C 681.179688 185.042969 681.097656 185.023438 681.019531 185.011719 Z M 676.589844 183.644531 C 675.757812 183.320312 674.921875 182.976562 674.097656 182.613281 C 673.210938 182.21875 672.335938 181.796875 671.488281 181.347656 C 670.4375 180.789062 669.234375 180.359375 668.128906 179.816406 C 667.71875 179.617188 667.324219 179.402344 666.964844 179.148438 C 664.722656 177.570312 661.898438 173.800781 660.984375 170.230469 C 660.421875 168.039062 660.578125 165.898438 662.488281 164.625 C 663.980469 163.625 665.496094 164.359375 666.886719 165.519531 C 669.421875 167.636719 671.535156 171.300781 672.523438 173.023438 C 672.851562 173.597656 673.144531 174.152344 673.40625 174.722656 C 673.660156 175.285156 673.878906 175.859375 674.074219 176.476562 L 675.988281 182.199219 Z M 679.339844 182.875 L 679.320312 182.90625 C 679.253906 182.660156 679.195312 182.460938 679.175781 182.371094 C 679.046875 181.765625 678.945312 181.148438 678.863281 180.523438 C 678.738281 179.558594 678.652344 178.582031 678.5625 177.621094 C 678.511719 177.066406 678.488281 176.507812 678.480469 175.949219 C 678.464844 175.070312 678.484375 174.1875 678.484375 173.308594 C 678.480469 170.675781 679.097656 165.515625 681.085938 162.019531 C 682.257812 159.960938 683.933594 158.484375 686.417969 158.980469 C 687.355469 159.167969 687.832031 159.847656 688.09375 160.640625 C 688.445312 161.699219 688.453125 162.953125 688.398438 163.976562 C 688.285156 166.015625 687.589844 168 686.667969 169.925781 C 685.195312 172.988281 683.152344 175.902344 681.679688 178.648438 L 679.605469 182.402344 Z M 679.339844 182.875" fill="#f6f4e9"></path></g><g clip-path="url(#3e3be57133)"><path fill-rule="evenodd" fill-opacity="1" d="M 727.816406 215.152344 C 727.644531 215.394531 726.667969 214.988281 726.457031 214.914062 C 724.980469 214.410156 723.484375 213.828125 722.089844 213.167969 C 720.898438 212.601562 719.460938 212.230469 718.355469 211.535156 C 715.011719 209.433594 710.15625 202.351562 714.808594 199.589844 C 718.71875 197.269531 722.949219 203.691406 724.367188 205.898438 C 724.925781 206.769531 725.359375 207.585938 725.695312 208.546875 C 726.171875 209.898438 726.707031 211.25 727.214844 212.605469 C 727.375 213.027344 727.714844 213.457031 727.785156 213.898438 C 727.824219 214.136719 727.917969 214.789062 728.039062 214.574219 C 728.132812 214.402344 727.769531 213.417969 727.722656 213.222656 C 727.449219 212.089844 727.332031 210.894531 727.214844 209.730469 C 727.109375 208.683594 727.152344 207.628906 727.152344 206.574219 C 727.152344 203.21875 728.710938 194.402344 734.746094 195.476562 C 737.0625 195.890625 737.257812 198.3125 737.152344 199.984375 C 736.910156 203.875 733.632812 207.511719 731.644531 210.800781 C 731.105469 211.695312 730.507812 212.542969 730 213.449219 C 729.75 213.894531 729.421875 214.3125 729.175781 214.746094 C 729.117188 214.851562 728.925781 215.027344 728.925781 215.027344 C 728.925781 215.027344 729.027344 214.789062 729.113281 214.6875 C 729.511719 214.214844 729.824219 213.59375 730.378906 213.222656 C 731.660156 212.367188 732.976562 211.390625 734.304688 210.519531 C 735.226562 209.914062 736.191406 209.453125 737.214844 209 C 740.816406 207.394531 749.683594 204.496094 751.203125 209.898438 C 751.675781 211.589844 750.246094 212.792969 748.988281 213.84375 C 745.230469 216.980469 739.515625 216.363281 734.808594 216.039062 C 733.320312 215.9375 731.628906 216.078125 730.191406 215.757812 C 729.589844 215.625 728.902344 215.753906 728.292969 215.644531 C 728.226562 215.632812 728.101562 215.589844 728.101562 215.589844 L 728.417969 215.589844 C 728.933594 215.589844 729.574219 215.808594 730.0625 215.929688 C 731.074219 216.179688 732.183594 216.488281 733.101562 216.941406 C 736.640625 218.691406 744.382812 220.332031 743.609375 225.167969 C 742.964844 229.167969 738 229.558594 734.875 227.703125 C 732.015625 226.007812 727.59375 219.152344 727.59375 215.816406 C 727.59375 215.644531 727.5625 216.15625 727.59375 216.324219 C 727.667969 216.707031 727.753906 217.121094 727.847656 217.503906 C 728.140625 218.722656 728.402344 219.921875 728.542969 221.167969 C 728.910156 224.410156 728.785156 228.613281 726.011719 231.082031 C 725.042969 231.949219 723.6875 233.148438 722.152344 232.773438 C 720.621094 232.402344 720.011719 230.621094 719.9375 229.394531 C 719.699219 225.5625 722.09375 222.953125 724.242188 219.816406 C 724.910156 218.835938 725.714844 217.972656 726.390625 217 C 726.46875 216.886719 727.035156 215.816406 727.339844 215.816406 C 727.640625 215.816406 726.984375 216.246094 726.773438 216.433594 C 726.425781 216.742188 726.042969 217.027344 725.695312 217.335938 C 724.703125 218.222656 723.609375 218.863281 722.46875 219.589844 C 719.585938 221.425781 715.089844 222.976562 711.519531 222.183594 C 710.09375 221.863281 708.410156 221.292969 707.785156 219.984375 C 706.429688 217.144531 708.601562 215.300781 711.140625 214.011719 C 715.183594 211.957031 723.351562 215.152344 727.816406 215.152344 Z M 727.816406 215.152344" fill="#f6f4e9"></path></g><g clip-path="url(#d5992cddd9)"><path fill-rule="evenodd" fill-opacity="1" d="M 725.863281 205.777344 C 725.746094 205.578125 725.625 205.378906 725.496094 205.175781 C 724.433594 203.519531 721.859375 199.714844 719.003906 198.335938 C 717.414062 197.570312 715.746094 197.457031 714.117188 198.421875 C 711.542969 199.945312 711.085938 202.445312 711.855469 205.070312 C 712.710938 207.984375 715.210938 211.035156 717.304688 212.492188 C 716.929688 212.445312 716.558594 212.40625 716.195312 212.375 C 714.070312 212.207031 712.136719 212.367188 710.679688 213.105469 C 708.953125 213.980469 707.414062 215.125 706.738281 216.554688 C 706.21875 217.660156 706.148438 218.9375 706.859375 220.425781 C 707.199219 221.144531 707.769531 221.710938 708.464844 222.140625 C 709.308594 222.660156 710.351562 222.980469 711.292969 223.191406 C 713.21875 223.621094 715.394531 223.441406 717.480469 222.890625 C 719.125 222.453125 720.710938 221.792969 722.066406 221.046875 C 721.1875 222.28125 720.359375 223.488281 719.773438 224.777344 C 719.121094 226.199219 718.75 227.714844 718.855469 229.460938 C 718.914062 230.390625 719.230469 231.574219 719.886719 232.460938 C 720.375 233.117188 721.039062 233.621094 721.894531 233.832031 C 722.738281 234.039062 723.542969 233.917969 724.292969 233.605469 C 725.230469 233.214844 726.070312 232.496094 726.742188 231.902344 C 728 230.785156 728.789062 229.359375 729.25 227.808594 C 729.628906 226.546875 729.777344 225.195312 729.796875 223.882812 C 731.25 226.027344 732.945312 227.878906 734.292969 228.683594 C 736.433594 229.957031 739.328125 230.292969 741.488281 229.425781 C 743.140625 228.765625 744.410156 227.445312 744.746094 225.351562 C 745.070312 223.351562 744.285156 221.765625 742.871094 220.480469 C 741.4375 219.183594 739.273438 218.226562 737.238281 217.402344 C 739.410156 217.539062 741.675781 217.597656 743.804688 217.273438 C 746.007812 216.9375 748.0625 216.191406 749.765625 214.777344 C 750.625 214.0625 751.527344 213.265625 752.035156 212.347656 C 752.488281 211.523438 752.667969 210.605469 752.378906 209.570312 C 751.582031 206.71875 749.21875 205.605469 746.332031 205.542969 C 742.988281 205.472656 738.914062 206.882812 736.710938 207.863281 C 736.070312 208.144531 735.449219 208.433594 734.851562 208.75 C 734.667969 208.847656 734.488281 208.949219 734.308594 209.050781 C 735.402344 207.449219 736.554688 205.777344 737.347656 204.046875 C 737.945312 202.75 738.347656 201.421875 738.433594 200.0625 C 738.515625 198.792969 738.398438 197.183594 737.675781 196.007812 C 737.136719 195.125 736.289062 194.441406 734.972656 194.203125 C 732.023438 193.675781 729.914062 195.007812 728.457031 197.117188 C 726.710938 199.65625 726 203.417969 725.863281 205.777344 Z M 726.851562 218.144531 C 726.964844 218.609375 727.070312 219.074219 727.160156 219.542969 C 727.277344 220.117188 727.375 220.699219 727.441406 221.292969 C 727.648438 223.113281 727.707031 225.261719 727.140625 227.183594 C 726.796875 228.347656 726.226562 229.425781 725.285156 230.265625 C 724.847656 230.65625 724.332031 231.128906 723.742188 231.449219 C 723.335938 231.671875 722.890625 231.832031 722.410156 231.714844 C 721.96875 231.609375 721.679688 231.285156 721.46875 230.917969 C 721.183594 230.410156 721.046875 229.8125 721.015625 229.324219 C 720.929688 227.964844 721.226562 226.78125 721.730469 225.667969 C 722.550781 223.859375 723.882812 222.234375 725.121094 220.417969 Z M 728.851562 216.867188 L 729.78125 217.074219 C 730.351562 217.214844 730.953125 217.375 731.53125 217.570312 C 731.898438 217.695312 732.253906 217.835938 732.582031 217.996094 C 734.582031 218.980469 737.953125 219.917969 740.3125 221.449219 C 741.679688 222.332031 742.71875 223.40625 742.46875 224.984375 C 742.226562 226.496094 741.125 227.28125 739.820312 227.53125 C 738.398438 227.800781 736.742188 227.484375 735.453125 226.722656 C 734.136719 225.945312 732.484375 223.953125 731.132812 221.796875 C 730.109375 220.164062 729.242188 218.433594 728.886719 217.027344 Z M 725 215.875 L 725.4375 216.03125 L 725.558594 216.074219 L 724.992188 216.546875 C 724.625 216.875 724.246094 217.167969 723.851562 217.441406 C 723.226562 217.878906 722.574219 218.277344 721.90625 218.703125 C 720.535156 219.578125 718.78125 220.382812 716.945312 220.875 C 715.191406 221.34375 713.363281 221.53125 711.742188 221.171875 C 711.125 221.035156 710.449219 220.851562 709.859375 220.554688 C 709.371094 220.316406 708.933594 220.007812 708.710938 219.542969 C 708.210938 218.503906 708.359375 217.648438 708.886719 216.941406 C 709.5 216.117188 710.519531 215.46875 711.601562 214.917969 C 712.769531 214.320312 714.328125 214.253906 716.035156 214.386719 C 718.949219 214.613281 722.25 215.441406 725 215.875 Z M 730.726562 214.65625 L 730.800781 214.535156 C 730.882812 214.4375 730.96875 214.339844 731.078125 214.269531 L 734.988281 211.5625 C 735.414062 211.285156 735.847656 211.039062 736.296875 210.808594 C 736.757812 210.570312 737.234375 210.351562 737.722656 210.136719 C 739.683594 209.257812 743.300781 207.949219 746.285156 208.003906 C 748.015625 208.035156 749.542969 208.523438 750.027344 210.230469 C 750.160156 210.699219 749.984375 211.089844 749.722656 211.445312 C 749.324219 211.992188 748.746094 212.464844 748.210938 212.910156 C 746.851562 214.046875 745.195312 214.617188 743.4375 214.890625 C 740.644531 215.324219 737.597656 215.03125 734.890625 214.851562 C 733.855469 214.78125 732.722656 214.828125 731.648438 214.757812 C 731.332031 214.738281 731.023438 214.707031 730.726562 214.65625 Z M 726.085938 213.308594 C 725.640625 213.152344 725.199219 212.984375 724.757812 212.8125 C 724.050781 212.53125 723.355469 212.234375 722.683594 211.917969 C 721.839844 211.519531 720.878906 211.214844 719.992188 210.828125 C 719.675781 210.691406 719.367188 210.542969 719.089844 210.367188 C 717.371094 209.289062 715.203125 206.734375 714.476562 204.296875 C 714.070312 202.917969 714.15625 201.558594 715.503906 200.757812 C 716.585938 200.113281 717.6875 200.570312 718.703125 201.296875 C 720.742188 202.753906 722.449219 205.398438 723.238281 206.625 C 723.492188 207.015625 723.71875 207.398438 723.917969 207.789062 C 724.113281 208.171875 724.285156 208.566406 724.4375 208.988281 L 725.96875 213.070312 Z M 728.964844 212.726562 C 728.886719 212.371094 728.820312 212.007812 728.765625 211.644531 C 728.664062 210.960938 728.597656 210.273438 728.527344 209.597656 C 728.488281 209.214844 728.46875 208.832031 728.464844 208.449219 C 728.453125 207.824219 728.46875 207.199219 728.464844 206.574219 C 728.464844 204.710938 728.957031 200.996094 730.601562 198.59375 C 731.480469 197.308594 732.730469 196.433594 734.519531 196.75 C 735.125 196.855469 735.457031 197.21875 735.632812 197.667969 C 735.914062 198.371094 735.914062 199.21875 735.871094 199.902344 C 735.785156 201.3125 735.234375 202.675781 734.511719 204.003906 C 733.34375 206.160156 731.726562 208.210938 730.5625 210.144531 Z M 728.964844 212.726562" fill="#f6f4e9"></path></g><path fill-rule="nonzero" fill-opacity="1" d="M 731.25 214.113281 C 731.25 214.546875 731.164062 214.960938 730.992188 215.359375 C 730.824219 215.761719 730.578125 216.113281 730.261719 216.417969 C 729.949219 216.722656 729.582031 216.957031 729.171875 217.121094 C 728.757812 217.289062 728.328125 217.371094 727.882812 217.371094 C 727.4375 217.371094 727.007812 217.289062 726.59375 217.121094 C 726.183594 216.957031 725.816406 216.722656 725.503906 216.417969 C 725.1875 216.113281 724.941406 215.761719 724.773438 215.359375 C 724.601562 214.960938 724.515625 214.546875 724.515625 214.113281 C 724.515625 213.683594 724.601562 213.269531 724.773438 212.867188 C 724.941406 212.46875 725.1875 212.117188 725.503906 211.8125 C 725.816406 211.507812 726.183594 211.273438 726.59375 211.105469 C 727.007812 210.941406 727.4375 210.859375 727.882812 210.859375 C 728.328125 210.859375 728.757812 210.941406 729.171875 211.105469 C 729.582031 211.273438 729.949219 211.507812 730.261719 211.8125 C 730.578125 212.117188 730.824219 212.46875 730.992188 212.867188 C 731.164062 213.269531 731.25 213.683594 731.25 214.113281 Z M 731.25 214.113281" fill="#dfaf36"></path><path fill-rule="evenodd" fill-opacity="1" d="M 727.882812 209.867188 C 726.691406 209.84375 725.609375 210.304688 724.804688 211.039062 C 723.960938 211.8125 723.449219 212.90625 723.425781 214.113281 C 723.398438 215.339844 723.914062 216.449219 724.734375 217.265625 C 725.535156 218.054688 726.648438 218.539062 727.882812 218.5625 C 729.128906 218.585938 730.261719 218.105469 731.101562 217.335938 C 731.980469 216.527344 732.519531 215.382812 732.542969 214.113281 C 732.566406 212.832031 732.027344 211.671875 731.167969 210.820312 C 730.332031 209.996094 729.167969 209.492188 727.882812 209.464844 Z M 727.882812 212.253906 C 728.433594 212.242188 728.945312 212.429688 729.316406 212.769531 C 729.691406 213.109375 729.945312 213.578125 729.957031 214.113281 C 729.964844 214.664062 729.753906 215.171875 729.386719 215.535156 C 729 215.914062 728.476562 216.167969 727.882812 216.179688 C 727.277344 216.191406 726.71875 215.980469 726.308594 215.609375 C 725.898438 215.230469 725.621094 214.707031 725.609375 214.113281 C 725.597656 213.507812 725.832031 212.953125 726.242188 212.550781 C 726.660156 212.132812 727.238281 211.863281 727.882812 211.851562 Z M 727.882812 212.253906" fill="#dfaf36"></path></svg>